<?xml version="1.0" encoding="utf-8" ?>
<svg baseProfile="full" height="148mm" version="1.1" viewBox="0 0 210 148" width="210mm" xmlns="http://www.w3.org/2000/svg" xmlns:ev="http://www.w3.org/2001/xml-events" xmlns:xlink="http://www.w3.org/1999/xlink"><defs /><polyline fill="none" points="134.833287890625,71.95579482727051 135.56331884765626,70.71384547424316 135.321080859375,68.77469769592285 129.67713735351563,72.4606199005127 118.01582043457032,78.67304342956542 113.75802194824219,80.33289518127441 109.82126440429687,81.58343578796386 107.9998048095703,81.98244027404785 106.27406645507813,82.5483126373291 105.10983471679687,83.16639714050294 104.26809916992187,84.26636418762207 103.86175949707031,84.93031952209472 104.038852734375,84.14438139343261 109.42838781738281,80.73922469177246 110.11272883300781,79.73872269592285 110.72676262207031,78.87986155090331 111.12672033691406,78.02818112487793 111.60537531738281,77.36232543029786 112.14909375,76.86359980163574 112.8593853515625,76.61445954284667 113.66312995605469,76.42190733337402 114.58861142578125,76.37543285827637 115.3922584716797,76.41015762023926 113.54614907226562,76.99420840148926 110.21062075195313,78.05299759216308 103.14935412597656,81.07947857971192 101.64992731933594,82.39064169006348 102.01190222167969,83.18268129577636 102.70369020996094,83.38532878723144 103.42029060058594,83.53426011047364 103.05205568847656,84.7496227142334 104.99334162597657,83.8615793548584 105.77632250976562,83.30941397399903 105.45264748535156,82.53150410461426 104.05821811523437,82.4754058807373 102.36105629882813,82.55843230895996 101.12888312988281,82.46273342590332 100.07910388183593,82.31199930114747 99.18465417480469,82.14562734680176 98.43911953125,81.98028179016113 97.37951125488281,81.69250223083496 96.71655183105469,81.41662481994629 101.30957790527344,84.10954281311035 103.51121520996094,86.17623016052246 113.20735246582032,82.8953610748291 118.7999232421875,78.67147639465333 120.69921020507813,77.50827918395996 121.3814537109375,77.61439041442871 121.542165234375,78.98561913146973 121.38117729492188,79.84666721496582 121.14877646484375,80.70628443908691 121.15012602539062,78.7690248260498 122.3262111328125,76.97104230041504 123.7383392578125,75.13824558410644 125.0397708984375,73.27542521057129 126.163841015625,71.51761040344238 126.98165844726563,70.27527894592285 127.28365107421875,69.64522522277832 126.30962607421876,70.0910517364502 125.05723388671875,70.7019026763916 123.23464423828125,71.29894501037597 120.424794140625,72.09464103088379 116.65431708984374,73.47709101867676 113.031413671875,75.12877427062989 109.25850578613282,76.98181033020019 108.18936115722656,77.54727010192872 107.43413569335938,77.94351855773925 106.62250510253907,78.29656481628417 106.3976325439453,77.65544429016113 103.38960842285157,81.08237078552246 104.58961164550782,81.68775641174317 106.17784929199219,81.26732358703613 106.59270095214843,80.68337442932129 105.97198439941407,80.11580088806153 106.78711083984375,79.6737811920166 108.62674885253907,80.06986095275879 111.34773933105468,80.6814923614502 114.67095087890625,81.25205973205567 118.66530864257813,81.40210688171386 124.56116469726562,79.58176108093262 131.1490201171875,74.16487910461426 134.8118737792969,69.12946139221191 135.43551708984376,66.89916625061035 133.2054739746094,67.38448773498536 128.03681967773437,69.86885797424317 122.60422060546875,72.41467793273925 120.36278752441406,74.0978482208252 118.86417370605469,75.38701796569825 117.93570856933594,76.20941455383301 117.26154616699219,76.70346549987794 117.10037124023438,76.0431076385498 121.26113957519532,75.45851215515137 127.97613823242187,75.47287765808106 131.57557880859375,74.0598084991455 135.15201181640626,71.61299831848144 137.80406088867187,69.19148833312988 139.27329331054688,67.47085148010254 139.58700922851563,66.83261096496582 138.8185727050781,67.27429530334473 136.98895883789064,68.49279807434083 134.63828452148437,70.14396101379394 108.4004373046875,84.29427204284667 113.93219655761719,81.4234681488037 118.5392466796875,78.38571304626466 120.84440178222657,76.92568161926269 123.13394750976562,75.66027552185058 124.88047397460937,74.60226476745605 126.03563276367188,73.8880972442627 124.61535849609375,74.71356286315918 123.3249509765625,75.33245832214355 121.4485740234375,76.19051664123535 120.67387749023437,76.05916009216308 119.43075336914063,75.96995088806152 118.49956472167969,76.28407939758301 117.44802941894531,76.82786490173339 116.58654638671875,77.42721002502441 115.89922983398438,77.95302645568847 115.27020454101563,78.3981029876709 114.49175200195313,78.82563523254395 112.49504465332032,79.70841449279786 111.795671484375,80.07722662658692 110.77425739746094,80.65045043640137 110.1250130859375,81.03971329040527 110.96100893554687,81.07464536437989 115.56890456542969,83.58628526306153 118.43306228027345,82.6276643585205 119.73662395019531,81.9547011138916 120.06068107910156,81.28439430847168 120.06736384277343,79.7753051361084 119.18460490722657,77.53716669006347 118.68608862304687,75.45272164611816 119.10246057128907,74.11576241760254 118.309463671875,75.66819402770996 118.05215288085938,77.81455422668458 118.21668544921874,79.30835515441895 118.46382575683594,80.35566901550293 118.82504458007813,81.00410440368653 120.3812830078125,80.83328540344239 121.50328813476563,80.21224975280762 122.72036411132812,79.468186618042 123.93464340820313,78.70157118835449 125.0056904296875,77.89888346862793 125.79554106445312,77.08007622375489 126.20505952148437,76.33592162780762 124.71937221679687,75.78471354064942 122.07598959960937,76.48274121398926 118.53510043945313,77.98830404968261 112.18816596679687,80.96615207824708 114.64130119628906,79.91338916320801 117.30349636230468,78.75672228088379 119.64905698242188,77.62029677429199 121.50081665039062,76.63054858093261 122.83545073242188,75.9710443572998 123.75155844726562,75.63652813415527 124.44804550781251,75.3150542755127 123.59852153320313,75.50078551330566 122.98229267578125,75.84877701721192 121.84586513671874,76.31500140686035 120.49235346679687,76.88047134094238 119.2053767578125,77.36557738342285 117.81304489746094,77.73045465393066 116.45408620605468,77.92904736633301 114.83990610351563,78.15814949645996 113.7954275390625,78.24688106994628 112.82557316894531,78.21205265197754 113.39948598632813,77.71377823181152 114.05920971679687,77.51845779724121 114.76681032714843,77.30347117614747 109.6632276123047,81.34984596252441 108.92200993652344,82.01397812194824 109.18515798339844,82.7425782196045 108.90880700683594,83.91626501159668 107.93368447265625,84.46223135681153 106.95577338867187,83.20300397033691 106.55753107910157,81.292142086792 106.32116286621094,79.96469685363769 105.88554748535157,79.07618196105958 105.97022834472656,80.0784461090088 106.81237038574218,81.17500673522949 107.93459501953124,81.92111453552246 108.77950935058594,81.93022406921386 108.05838874511718,81.48877752990722 107.08049392089843,81.25051505432128 105.91526220703125,80.96288589782715 105.46374477539062,80.36071360778809 106.15941071777344,79.98212325744629 107.25764406738281,79.43518539123535 108.86199514160157,78.68958977355958 110.51200363769532,77.85132771911621 111.75317658691407,77.12110164489746 112.36622666015626,76.56333070983887 112.70882805175782,75.98722079162597 111.50993049316406,75.96043079528809 110.61412309570312,76.17139312438965 109.32929267578125,76.54805872497559 107.97279733886718,77.08533219299316 106.95970012207032,77.63662157897949 106.19953168945312,78.24136900939942 106.07031533203126,79.17158003845215 106.63366743164063,80.02101864929199 105.99457734375,80.34678508605957 105.16792272949219,80.60700027770996 104.47336245117188,80.70682101135255 103.49410993652344,80.6260770477295 102.65406540527344,80.34076287536621 102.01726794433594,79.93299640808105 102.13520002441406,79.2751527130127 103.18379230957031,81.22920663146972 107.16159763183593,78.96284936218262 113.47889868164063,73.78023402404786 112.61707419433594,75.51260026550293 112.35002380371094,76.43009412536621 112.102916015625,77.16023077087402 111.36587709960938,77.87163413391113 110.59965190429688,78.59695788879395 110.01766611328125,79.54215229187012 109.97487041015626,80.37214422302246 110.35152788085938,81.04310141906738 108.07051853027343,84.42805332946777 110.99343090820312,83.58218983459473 113.50832885742187,82.26890888977051 114.66327626953125,80.78856291809082 114.70808005371094,79.41731387634277 114.16589816894532,78.397068460083 113.26292834472656,77.92171827697754 112.49530480957031,78.05251589660645 111.60805817871093,78.66676106262207 110.1511587890625,79.68157165222168 107.91728649902343,80.96674352722168 106.61418823242188,81.795099319458 106.26658696289063,82.44635780944824 106.94965158691406,82.67715095520019 107.6674552001953,82.61845116882324 107.43049350585937,83.679595993042 108.1746216796875,82.97246081848145 106.76493251953126,82.19621351013184 106.26101799316406,81.59260426330566 106.3016999267578,80.75797016906738 105.08016064453125,81.02213241882325 105.33857709960938,82.04622326965332 106.9638544921875,81.80269669494629 109.47093962402344,80.64407254333496 112.24538408203125,79.03226433410644 114.67065007324219,77.31218844299316 116.07753442382813,75.97840596618653 116.64736604003906,75.31147306213379 115.41650991210938,76.18764679260254 116.01738955078125,74.8471652923584 117.35043830566406,72.78027469787598 118.96133393554688,70.62660776672364 120.5066783203125,68.68723641662598 121.64248798828126,67.12167301330567 122.1857267578125,66.04277658996583 121.66510532226563,65.33521662902832 120.97214663085937,65.04393105773926 121.09086730957031,65.75270643615723 121.54699438476563,66.24948699035644 121.991325,66.79376638488769 122.422013671875,67.321696585083 119.32969079589844,72.58761273498536 118.78514311523438,77.87201014099121 114.91788793945312,83.98729783020019 110.29391953125,81.94272376403809 108.98915463867188,79.37272756652833 109.7302259765625,77.84767740173339 111.67011357421875,76.92615924987793 114.2791880859375,76.11333153381348 117.34143039550781,75.0971185394287 120.77806193847657,73.73643834533691 124.39305498046875,72.0610890045166 127.58432666015625,70.33343199768066 130.13086611328126,67.26631582336425 129.91986313476562,66.62988420715332" stroke="#6699ff" stroke-linecap="round" stroke-width="1" /></svg>