<?xml version="1.0" encoding="utf-8" ?>
<svg baseProfile="full" height="148mm" version="1.1" viewBox="0 0 210 148" width="210mm" xmlns="http://www.w3.org/2000/svg" xmlns:ev="http://www.w3.org/2001/xml-events" xmlns:xlink="http://www.w3.org/1999/xlink"><defs /><polyline fill="none" points="87.59672570800781,70.49704893798828 86.45221909790038,70.28411307983399 85.64611682739258,70.16308148193359 84.77614213256835,69.90082772216797 83.8322505432129,69.51649970703124 82.86566032104491,69.0330298034668 81.96639365844726,68.42359143066406 81.1241012145996,67.7671135559082 80.43134577026368,67.05287286376954 79.91460228881836,66.41940458984375 79.78262177124023,65.52269884033203 80.80483665161132,65.33917689819336 81.73757404174805,65.91468520507813 81.89443200073242,66.7301226135254 81.51415673217772,67.44460516967773 80.93831713256836,67.94438158569336 80.13024743041993,68.29755588989258 79.99929940795899,69.12548283081054 80.22979784545899,69.79011091308594 80.94663806762695,69.7710991821289 81.42467517700194,69.24471569213867 81.37610725708008,68.56096409301757 80.81971840209961,68.94701157836914 80.94589824829102,68.2459921081543 81.38424526977539,67.1637482055664 81.6736162536621,66.26996718139648 81.99835629272461,65.18821716918946 82.31074703979492,64.1860607421875 82.59056541137696,63.44295286865234 83.05933851928711,62.417477905273444 83.6787055114746,62.00504488525391 84.39190354614257,62.345654455566404 84.78940603637696,62.94816413574219 85.08000463256836,63.66742706298828 85.27159345092772,64.33143320922852 85.19074989624023,65.01994282226562 84.75093136596679,65.6865749206543 83.99405147094726,66.29980588378906 83.03541227416991,66.7350757446289 82.02154678344726,66.9789010925293 81.06246044311523,67.1054041015625 80.24220404663086,67.19879409790039 79.50127904663086,67.49884774780273 79.20439198608398,68.28610494995117 79.29088580932617,69.30300085449218 79.32649063110351,69.99804079589843 79.64443002319337,69.29432220458985 80.08677288208008,68.58394930419922 80.63413756713867,67.80913488769531 80.9672920349121,67.03543020019531 81.03204248657227,66.19608687133788 81.15106803588867,65.49791489257812 80.87266832885742,64.65836018676758 80.04317638549804,63.98987447509765 79.12315413208007,63.187670483398435 78.60820328979491,62.46728563232422 78.40009454956055,63.13363521728516 78.13622294311523,64.22674877319336 77.58911841430664,65.47821821899414 77.52207533569336,66.39110650024413 78.10495541381836,65.91052067260742 78.05192825317383,65.20308469238282 77.53778633422851,64.57795767822266 77.45347944946289,63.90210426025391 78.01205524291993,63.50080104980469 78.9188176574707,63.72673049316407 80.0166729675293,64.39123662719726 80.54125772094727,64.86332062988281 81.03838786010742,65.41287022094727 81.46881231079101,66.02317036132813 81.77451216430664,66.72127120361328 81.96380022583008,67.4788583984375 82.03790410766601,68.27148132324218 82.01690462036133,69.05850072631836 81.89849287719727,69.82537631225586 81.69595310668944,70.56486638793945 81.44131298217773,71.2453965209961 80.9017245300293,72.24253477783203 80.3903305114746,71.6158590209961 80.63031245727538,70.734908984375 80.85752235717773,69.665926953125 81.03193273315429,68.58163228759766 81.21732658081055,67.02838768920898 81.33162460327148,65.17022370605468 81.30109689331054,63.434042517089836 81.13831224975586,62.05082019042969 80.87853403930664,61.14371225585937 80.27920314331054,60.70284903564453 79.82881983032226,61.52742239990235 80.1563077697754,60.93829450683593 80.63481641235352,60.38764534912109 81.2318018371582,61.415843823242184 81.76421566772461,62.35633712158203 82.42963844604492,63.51632506103516 83.31174292602539,64.83988421020507 84.53597319946289,66.22331384887696 85.94092670288086,67.49256538085938 86.93426017456055,68.54358646850586 87.12508071899414,69.36855006713867 86.58556950073242,69.96739113769532 85.59358558959961,70.3018219970703 84.44970294799805,70.39672008666992 83.44053652954102,70.3183358215332 82.70585527954101,70.17270116577149 81.97267805786133,69.96310059204102 83.05101758422852,70.46006000366211 83.6647180480957,70.91802443237304 84.39131412963867,71.44281446533203 85.22347673950195,71.96592974243164 86.0741592224121,72.43157081298828 86.83404717407227,72.80129755859375 87.76117697753907,73.06772601318359 87.01850608520508,72.07422181396484 86.48112489624023,71.40789255371094 86.04511115112305,70.64174052734376 85.77702826538086,69.85287767333985 85.65170205688476,69.08481105957031 85.57398850708007,68.37522269287109 85.49021819458008,67.67500401611328 85.37259505004883,66.97321220703125 85.22020446166992,66.26216655883789 85.02883515014648,65.55598867797852 84.78649147338866,64.90211439819336 84.20891614379883,63.79882629394531 83.45739790649414,63.282294189453125 82.75817514038086,63.83727657470703 82.62041427612304,64.63264333496093 82.37300568237305,65.48348231811524 82.01672982788085,66.28418228149414 81.59465883178711,67.06021211547852 81.37018057250977,67.75198994140625 81.43202459106445,68.42638607788086 81.98103151245117,68.83695328979492 82.93418710327148,68.97484219970703 83.62262964477539,69.0271783203125 82.85438010864257,68.84935136108399 81.85853043823242,68.6334948425293 81.06011497192382,68.50346956176757 80.32435651245117,68.6510614868164 79.96333280639648,69.2522846130371 80.31496649780273,68.55702313232422 80.83861224975585,68.1298303100586 81.0925532043457,67.3097629333496 80.8388358215332,66.37181225585937 80.58748016967773,65.3261975402832 80.3878508972168,64.63602130126952 79.9904703552246,65.33182341918945 79.87637557983399,66.45668416748046 79.83509203491211,67.23241929321289 79.81369824829102,67.92788605346679 79.72558251342772,68.65807757568359 79.21374541625977,67.80394192504883 79.20028639526367,66.97611254272461 79.1240850036621,65.99533770751952 78.96470678100586,64.84187399902343 78.72670039672852,63.5002929321289 78.61484946899414,62.82010222167969 78.59820353393555,61.911173193359375 78.93094744262694,62.993915051269525 79.04561130981445,64.01180076904296 78.53803020629883,64.66096378173827 78.23120029907227,64.00789029541015 78.36834329223632,63.32969140624999 78.98858018188477,64.14416339111328 79.27296348266601,64.76846115722657 79.57762677612304,65.50506512451172 79.87386344604492,66.26884932250977 80.15240542602538,66.99530313110351 80.39875307006835,67.66242708740235 80.7489518371582,68.78300541992188 80.9749625793457,69.49947573242187 81.66078729858398,69.56619361572265 82.03871709594726,68.95621054077148 81.38258270874023,69.24604696044922 80.90040342407227,69.71327132568359 81.09387431030274,69.0741324584961 81.56503353881835,68.29972860107422 81.79901969604492,67.62636292724609 81.47996651000976,68.21592576904297 82.00913651733399,67.57283171386719 82.24109426879883,66.91026252441407 82.17324633178711,66.22262280883788 81.42862223510741,66.4124067932129 80.79973515014649,66.96877125854492 80.58887850952148,67.655309375 80.58566720581055,68.34448157348633 81.15343383178711,68.84443887939453 81.90396835327148,69.01863787841796 82.61299575805664,69.08268509521484 83.09742702026367,69.61163559570312 82.54317225952148,69.177093359375 82.11819076538086,68.34746320800781 81.8955945739746,67.64962861938477 81.40410657348633,66.99924205932618 81.05784266967774,65.94618646850586 80.90412284545899,64.90201887207031 80.87683895874024,64.16219140625 81.19737178344727,64.84008339233398 81.68207946166991,65.55557202148438 81.61508922729492,66.84209752197266 81.32702715454101,67.89074265136719 81.0365545715332,68.62769620361328 80.65853128051758,69.500467578125 80.37872103881836,70.24227873535156 79.66556365356445,70.09926596679688 79.30277982788085,69.50813609008789 79.71161943969726,68.89978305664063 80.24048457641601,68.45384272460937 80.62542639770507,67.72037079467773 81.05363139038086,67.16645139160156 81.54070486450195,66.4332904296875 81.97961691284179,65.68899152832032 82.31346242065429,66.3554346069336 82.03522124633788,66.97935230102539 82.41126084594727,67.62456825561523 82.24542343139649,66.90576263427734 81.45511752319337,66.7986128112793 81.21452583618164,67.43049372558593 81.41076901245117,68.24884366455078 82.07619585571288,68.71943176879883 82.28679640502929,69.53405822143554 83.10526422729492,69.44550753784179 83.4964579284668,70.2751539489746 83.98630775756835,70.94940171508789 84.0393430480957,70.0897174194336 83.9846492614746,69.30622841796875 84.34445755004883,69.93457080078124 83.58857763061523,69.78457039794922 84.35704260864257,69.54764732055664 85.21983455200196,69.81016936645509 84.52192882690429,69.65971775512695 83.37420075073243,69.33425822143555 81.9807266418457,68.72668362426758 81.38508264770508,68.21031208496093 80.8468396911621,67.62604586181641 80.46163771362305,67.08268717651367 80.03277013549804,66.3469856262207 80.7747723449707,66.19150161743164 81.34316090698242,65.79394831542969 82.1625108215332,66.23430545043945 83.39456204223633,66.52066228027344 84.38445657348632,66.55961051635742 85.6375479309082,66.5238187072754 87.54850940551758,66.13991547851562 89.6875303527832,65.29256421508789 91.18865223999023,64.44214392089843 92.93787782592773,62.685906311035154 93.58618516845704,61.67733743896484 94.1527810913086,62.279310546874996 94.25628262939453,63.08503071289063 94.11473323974609,64.06670999755859 93.76562387695313,65.03001981201172 93.32314890747071,65.76869893188477 92.93341045532226,66.35809917602539 92.24639877319336,67.22296017456054 91.57531149902344,67.90537237548828 90.63323897094726,68.86897283325196 89.931099609375,69.46896224975586 89.05501327514648,70.08773576049805 88.05565962524415,70.65774623413085 87.01186600341796,71.12713111572266 85.7997472229004,71.55462067871093 85.07661853637696,71.58988607788086 84.08297612915038,71.6973509338379 83.21541194458007,71.40941080932618 82.47527147827148,71.13687071533204 82.53011973266601,70.32912011108398 82.66370996704102,69.47944979858399 82.93047987670899,68.74094547119141 82.97853967895507,68.03161319580079 82.66109214477538,67.40297407226562 82.01232343139648,67.00449599609375 82.82407190551757,67.255709375 83.49351897583007,67.37360487060546 84.26477656860351,67.47418574829102 85.06472858276368,67.64693356323242 85.77752418823242,68.01047143554688 86.2526792541504,68.54441774902344 87.17720952758789,68.83816870727539 87.9837691040039,68.85325167236329 88.75642300415039,68.75529877929688 89.45527992553711,68.65635607299805 90.15482788696289,68.8531337890625 90.79115787963867,69.18265826416015 91.43601815185546,69.4295770324707 90.66581541137695,69.60803405761719 89.77173561401366,69.46660051879883 88.16201881713867,69.30043994140625 85.57675673217773,68.79159464111328 82.8756641418457,67.64950667114257 81.09765877075195,66.36485714111328 80.27524389038086,65.69420481567383 80.42782959594726,66.78782852172851 80.1687302307129,67.94991803588867 80.31190153198241,69.0539744140625 81.14545028686523,69.50544306640624 81.82962870483398,69.56942321166991 82.63003599243163,69.62246663208008 83.48331190795898,69.72978921508789 84.30715764770508,69.8870028564453 85.04445265502929,70.04502948608399 86.08680525512695,70.20156834716796 85.46272699584961,70.67549580078125 84.56896019897461,70.92942049560547 83.69309133911133,71.28581626586914 82.9437641052246,71.6297794128418 82.30016599731445,71.9572592224121 81.49401088256836,72.17111985473633 80.67089276733398,72.08380694580079 81.30014569702148,71.49313031005859 81.8680139465332,71.12275927124023 82.6405479309082,70.49464859008789 83.01644119262696,69.93080869750976 83.47143008422852,69.17740229492188 84.04348115844726,68.66496155395508 84.74895986938476,68.33425621337891 85.44481279907227,68.18102418212891 85.35459142456054,68.858662109375 84.79596685180664,69.38458422851562 84.22165567016602,69.89409211425782 83.61435342407226,70.40761209716797 84.61374772338867,70.20184679565429 85.56081403198242,69.83084162597656 84.94356893920899,69.22920184326172 84.33770974731445,68.87263534545899 84.90925676879883,68.4736247619629 85.38274927368164,68.9639664489746 86.1055730895996,69.08095139770508 85.77046744995117,68.2540630493164 85.55707428588867,67.526922265625 85.39776516723633,68.66576437988282 86.27308526000976,69.2921454284668 87.15968353271484,69.00368702392578 88.46458460083008,68.40905723266602 90.0360767211914,67.65081558227538 91.48571409301758,66.9400788696289 92.48357997436523,66.38484649047851 93.06001102294921,65.95790975952148 93.6639474975586,65.2077614074707 94.27245296630859,64.62629592895507 95.07348828735351,64.62399313964843 95.9463104736328,65.11584495239258 96.65104123535156,65.80673865356445 97.08950817260742,66.51138811645508 97.2411670715332,67.17355690917968 97.12033465576172,67.9713362121582 97.19442634277344,68.7947226135254 96.81166942749023,69.42460154418946 96.53751148681641,68.70821659545898 96.84248574829101,68.07146181640626 96.45610087280274,68.77621696777344 96.25091279296875,69.5619315246582 95.9863684387207,70.21955164794922 95.63195026245117,70.80185043945312 95.32881741943359,71.45448694458008 94.72283221435546,71.94202788696289 93.68020523071289,72.35557673339844 92.85034947509766,72.4637062072754 91.88596448364258,72.5560067993164 90.96228988037109,72.53744627685546 90.63045042114257,71.69573918457031 91.38274099731446,70.84837979125976 92.3921187927246,69.83226842041016 93.37433261718749,68.83663419189453 94.20378391113282,67.98061037597657 94.86122314453125,67.34041665649414 95.61889570312499,66.78027789306641 95.74728687744141,67.44798110351563 96.27420693969727,68.25898569335938 96.49430115966797,69.14744367675782 97.12897265625,69.4124636291504 97.54115364990234,69.95427153930665 96.87467601928711,69.61586923217773 96.17175009155274,69.59350392456055 95.51028656616211,69.50065456542968 96.25980485229492,69.85099967041016 96.82800236206054,69.4959737854004 97.4474709777832,69.04634451904298 96.84259753417969,69.56924232177734 96.11406450805664,69.8307278076172 95.5323327758789,70.1875382019043 94.78095274658203,70.29802127685547 93.89909216308594,70.23669757080079 93.32885811767578,69.87995831298828 93.61492633666992,69.27766610717774 94.25649807128906,68.96969191894532 94.95768623657227,68.99540877075195 95.71146051635742,69.2677537475586 96.11374947509765,68.45904788208007 95.52542644042968,67.96096451416015 94.1066704284668,68.40132774658203 93.08950827026368,68.7458213684082 91.86872709960937,69.12102562255859 90.49780528564453,69.41914436035157 88.97776516113281,69.66156120605469 87.41744349975586,69.74610588989258 85.8453518005371,69.75825803222656 84.35520525512695,69.72806771240235 83.25857349243164,69.57944735717773 82.51158359985351,69.37098699951171 81.7867069885254,68.99048612670899 81.1255849182129,68.1895422668457 81.80599920043946,67.47040941772461 82.7477932800293,67.19175971679688 83.96920248413086,66.99092722167968 85.40311869506836,66.88980367431641 87.01860567626953,66.88248271484375 88.77503840332031,66.88548060913087 90.55316369018554,66.84261580200196 92.11329633178711,66.7291571899414 93.25085392456054,66.60190826416016 93.95211119384766,66.5277251159668 92.87565780029297,66.73300059204101 92.09153873291015,66.53229614257812 92.69183708496094,66.04555396118164 93.16638240966796,66.57968726196289 93.63256614990235,67.05753331909179 94.23627498779297,67.5353163696289 94.77722113037109,67.99070972290039 95.1379277709961,68.69534089355469 95.351455078125,69.65265695190429 95.51511978149414,70.39096616210938 95.83220553588868,71.0227678100586 95.13816557006835,71.8883767578125 94.41649619750976,72.43355450439454 93.621676171875,73.0283184387207 92.79564349365234,73.6578315246582 91.93089631347657,74.29779760742187 90.99164688720703,74.97906755981445 90.0531799621582,75.60314175415039 89.37910495605469,76.06037855834961 90.89184241333008,75.65005117797851 92.06655763549804,75.02209902954101 93.00334370727539,74.31900643920899 93.46626126708985,73.70122680664062 93.02259120483399,73.16315254516601 93.48100480957031,72.3976326171875 93.97175908813476,71.82731524047851 94.40956343994141,71.08879668579101 94.74126875610351,70.3498167602539 94.9873725036621,69.6421836303711 95.19697307739258,68.92896323852538 95.39126914672852,67.88971218872071 95.51577423706054,67.11317626953125 95.54301950683593,66.41028082885742 95.42232326660157,65.64960427856445 94.6595674987793,65.60080872192383 94.21485681152343,66.0974226135254 93.73063895874023,66.79438120727539 93.27640004882812,67.60186759033203 92.87042622070312,68.59689004516602 92.49819140625,69.81711228637695 92.17360583496094,71.16567489013671 91.901523046875,72.40885185546875 91.72935651855468,73.31544354248047 91.54661504516602,74.20788313598632 90.91004725341797,74.51025583496094 90.2296268737793,74.40101866455078 89.81132611083984,73.8068990234375 89.89183430786133,73.11838331298829 90.39570005493164,72.59257297973633 91.22920003051757,71.39592333374023 91.60851597290039,70.37983432006835 91.81627716064453,69.18344889526367 91.80599489135741,67.87795028076172 91.58967700195312,66.58250426635742 91.20224133911132,65.49517918701171 90.7472727722168,64.86041622924805 90.11687556152344,65.8003302734375 90.27920086669921,66.65179322509766 90.5991137878418,67.5653603515625 91.0739619506836,68.44752987060546 91.5859575805664,69.25096350708007 91.84196149291992,69.95396463623047 91.50713430175782,70.5826566040039 90.5037055480957,71.07763842163087 89.08508774414062,71.4267254272461 87.66735,71.62377955932617 86.61393059692382,71.69379207763672 87.7139809753418,71.93425368652343 88.45037763061524,71.79263722534179 88.60808312988281,71.04830783691406 87.82669163818359,71.44626356811523 88.66970154418945,71.14541725463867 89.21338135986328,71.79219414672852 88.94380257568359,72.41952029418945 89.67190268554687,72.00038621826172 90.30245639648437,71.65545764770508 90.62160714111329,70.88725689086914 90.6719636352539,70.1836419555664 90.83052073974609,69.28309483642578 90.82553508911133,68.52362760620117 90.60765016479492,67.7466872253418 90.9453207824707,67.15767721557617 91.65450062255859,67.23948416137695 92.39297039794921,67.29927944946289 92.88253161621094,67.78858254394531 93.49160820922852,68.12929577026367 94.18149380493163,67.91228480834961 93.46625313720703,67.94529822998047 92.5556229309082,68.52087970581054 91.65194783935547,69.28057863769531 90.74576264648438,70.05105169677735 89.55861073608398,70.6681118347168 88.85441654663086,70.91741469116211 88.11611953125,71.17514620361328 87.44229655151366,71.4172398864746 86.45480440063477,71.95716369628906 87.26823982543945,72.35135935668946 88.0904331665039,72.19318842163086 89.10092069091797,71.93992021484375 90.17613021240234,71.60364387207031 91.17207337646484,71.19782044677734 91.96533652954102,70.79263318481445 92.74407767944336,70.31093559570313 91.53639781494141,70.74901026611329 90.72259451293945,71.01080062255859 89.91899827880859,71.21496636962891 89.19565415039062,71.36330421142578 88.1189182434082,71.53132449951171 88.34868295898437,70.88250497436523 88.39668178710937,70.1324460510254 89.14834839477538,69.71888500976563 89.52644485473633,69.1154383605957 90.04113147583007,68.43546309204102 90.72263719482422,68.30111474609375 90.01394921264648,68.27950958251952 89.11400370483398,68.32249837036133 88.36975764770507,68.5748987121582 87.71279807739258,69.12745839233398 86.94208925170898,69.53894631347656 87.94511964111328,69.37263330078125 87.661236328125,69.99455307617187 88.60355885009766,70.3093583984375 89.4539750793457,70.25322562255859 88.65116947631836,70.82174629516601 87.71464356079102,71.4057828491211 86.84340060424805,71.61136929321289 86.03682680053711,71.32288649902344 85.10036998901367,70.6379296447754 84.60844703979492,70.15904499511718 84.14808023071289,69.05155170898438 84.84035194702147,68.66674199829102 85.93112612915039,69.33218510131836 86.41642322387695,69.83813006591797 87.0629399597168,70.61020064697266 86.20648526000977,70.32994122924805 85.69994071655273,69.71784641723633 84.95813768920898,69.16392498168945 84.37194468383788,68.67760961914063 84.23104974975585,67.9425869140625 83.55560689086914,67.96819401245116 82.86095311889648,67.60993243408203 82.37335933227538,67.00331309814453 82.97968192749023,66.13965735473633 83.84875420532227,66.10253224487305 84.97472265014648,66.25297572631835 86.3023812927246,66.57659993896485 87.91444559326172,67.13409445800781 94.21420845336914,69.95861696166992 94.8326445739746,69.66586394653321 95.3034603149414,68.77522918701172 95.80984429321289,67.53152581176758 96.16850423583985,66.15991702270507 96.49016711425782,64.83461604614257 96.76980053100586,63.70630822753907 96.98860209960938,62.831488122558596 97.12886290283203,62.15584608154296 97.17790845336914,60.95213156738281 97.06845177612304,60.16641091308594 96.88460260620117,59.20798309326172 96.63910453491211,58.10259951171875 96.34112197265625,57.02835338134766 96.05910446777344,56.156407189941405 95.82876659545899,55.45792017822265 95.52313787841797,54.641395397949225 94.78658675537109,55.042267724609374 94.65210833129882,55.83275249023437 94.5991482421875,57.06686463623046 94.62480005493164,57.99441109619141 94.66275441284179,59.12881022949219 94.64768973999023,60.29838736572266 94.58908141479492,61.31810230712891 94.51935547485351,62.07121400146484 94.45630010375976,62.814744628906254 94.75488021240234,62.14808204345704 94.53686724243164,61.38616162109375 93.99784788208008,60.67907725830078 93.42295134887695,60.29896458740234 92.94369475708008,59.59787194824219 92.3547843383789,59.03050775146484 91.72310057373046,58.7337060546875 91.07102503051757,58.32761840820312 90.3257668029785,57.81671624755859 89.56700077514648,57.26850605468749 88.80070850830077,56.70514989013671 88.01846744384765,56.119420288085934 87.24552493286133,55.51949184570313 85.96018639526366,54.508333605957034 85.32537669067383,53.88753981933593 86.4138501159668,55.48951290283203 87.37667823486328,56.4786757446289 88.62350755004883,57.9530421875 89.90988671264648,59.68963800048829 90.37899111328124,61.45654201660156 90.21411302490235,62.98666726074218 89.98437269897461,64.1469153564453 90.14410660400391,64.91147595825196 90.81364920043946,65.61058490600585 91.86228823242188,65.32033995971679 92.80614933471679,65.51396937866211 93.76679051513672,65.56357182617188 94.72264725952148,65.24247194213868 95.52616016235352,64.61968633422852 96.13978745727539,63.86017032470703 96.49446375732421,63.03712131347656 96.56990297241211,62.22738905029297 96.41358158569336,61.54785686035156 95.75858334960938,60.93714819335938 94.43952002563476,60.99601667480468 93.42296964111328,60.97142784423828 92.1674718383789,60.78808272705078 90.66449837036133,60.398681665039064 88.96602967529297,59.85114625244141 87.18692067260741,59.266168664550776 85.50110817260742,58.742856237792964 83.99200680541992,58.32100068359375 82.65686460571288,57.992240417480474 81.48661268920898,57.761843603515615 80.48434447631836,57.62610708007813 79.63941388549804,57.57566522216797 78.95821100463867,57.64199287109375 77.89563532104492,58.25084385986328 77.3611361755371,58.91575039062499 77.02462813110351,60.08657546386719 77.00564485473632,61.33950828857422 77.08481365356445,62.02450782470703 77.20974149780272,62.74675035400391 77.3570305847168,63.491992321777346 77.35646555786133,64.81221618652344 77.40219208374023,66.02947305297852 77.36000612182617,66.9374061706543 76.98310475463867,66.15511226196288 76.8891436340332,64.19727388305664 76.86029880981445,61.747026794433594 76.74370409545898,59.45436325683593 76.78868267211914,57.53304837646485 76.8307426208496,56.47454169921875 77.1636735168457,57.19428835449219 77.63640181274414,58.117143872070315 77.97687723999023,59.16607761230469 78.19156712036133,59.81438698730469 78.43508556518555,60.50778469238281 78.6902703918457,61.23254342041015 78.94988193969726,61.96443612060547 79.17406345825195,62.6637564453125 79.2963043762207,63.857158203124996 78.58202506713867,63.56228328857422 77.57684635620117,62.75118114013672 76.94371953735352,62.42374197998046 76.12696712036133,61.973610693359376 75.26704909057617,60.9523226196289 74.83243775024414,59.80628555908203 75.50911635131835,59.52499567871094 76.01818928833008,60.70372706298828 76.7042985534668,61.95502984619141 77.5328393005371,63.34408536376952 78.86117678833008,64.42743493041992 80.5904516418457,65.01059142456054 82.41009014282227,65.05205992431641 84.04222915649413,64.7630202331543 85.47897050170899,64.14160451049804 86.70416010131837,63.314663317871094 87.86480046386718,62.22520617675781 88.9630683654785,60.90786842041015 89.93655476074218,59.194735449218754 90.27541030883789,57.60498157958985 89.8712657043457,56.80425316162109 89.22105190429687,56.03164600830078 88.4677857421875,55.36080059814452 87.43876411743165,55.282229345703115 85.70619259643554,55.97744814453125 83.26181731567382,56.832585803222656 80.97928767700195,56.933306921386716 79.69627022094727,56.27943670654297 79.00617731323243,55.02443889160156 79.0025839050293,53.396372949218744 79.65939713745117,51.770973608398435 80.96899931030273,50.606534558105466 82.52597349243163,49.75923004150391 84.28362163696289,49.168781042480475 86.18304680786133,48.63725336914062 88.19224978637695,47.983208361816395 90.08938639526367,47.18072388916015 91.59749388427734,46.31672059326172 92.52045509033204,45.55039377441406 92.6999466430664,44.71986120605469 91.50427461547852,45.547869445800785 90.91456340332032,46.43379090576171 90.66826047363281,47.164167382812494 91.69687966918946,47.878385717773426 92.93273161010742,47.97637113037109 94.55418186035156,47.94098175048828 96.47468375244141,47.80170466308593 98.61051372070312,47.599185217285154 100.88143795166016,47.34181345214844 103.12141171875,47.028105664062494 105.16591566467285,46.62112373046875 106.97934598388672,45.99034644775391 108.58149487609863,45.0289390258789 109.99060986328125,43.62882686767577 111.05166322631835,42.12563186035156 111.60007869873047,40.749819921875 104.04285060424804,40.9288724609375 103.41659760131836,41.2954407470703 102.62526326293946,42.019776721191405 101.63248262329101,43.021504296874994 100.54912695922852,43.7520880859375 99.20576748046875,43.869483593750005 97.62000131835937,43.43423812255858 99.37900715332032,42.75186860351562 100.15177893676758,41.99650899658204 96.46245234375,41.420275097656244 93.35566640625,40.881621582031244 90.76187404174804,40.51306147460937 88.6277228942871,40.2632057861328 86.96073107299804,40.303151965332034 85.56462288208007,40.45327431640624 84.20579833374023,40.651834509277336 82.71532252807617,40.8503743774414 81.07496826782227,41.04642650146485 79.21649331665039,41.17268764648438 77.19275004272461,41.17487458496093 75.10618309936524,41.10061217041016 73.07825293579101,41.06608862304688 71.22453803100586,41.17935821533203 69.67866113891601,41.50669575195312 68.49335267944335,42.05573112792969 67.59831355590819,42.66923647460938 66.94316694946289,43.29867232666015 66.54463602905273,44.01577270507812 66.40477359008788,44.82417573242188 66.4016517150879,45.557625305175776 66.47167033081055,46.46909085693359 67.3995541809082,47.28579855957031 68.15034885864257,47.67796784667968 68.94271162719727,48.040519970703116 69.60742304077148,48.31625714111328 70.39596882934569,48.631277905273436 69.58998037719726,48.26861196289062 69.1837057434082,47.621818811035155 68.9145090637207,46.938538745117185 68.63645894165039,45.8773004272461 68.0091653137207,45.296643872070305 68.76720778198242,45.20673143310546 69.53559552612305,46.24171429443359 68.70928236694336,46.05026774902343 67.93851663208008,45.993939855957024 67.16392172241211,45.933010449218756 68.35408778686522,45.89962915039062 69.45173984985351,45.65937891845704 70.8207389465332,45.267185241699224 72.08467150268555,44.76714460449219 72.97926348266601,44.20484938964843 73.35965663452149,43.583047497558596 73.28167073364257,42.875585095214845 72.89694841918944,42.02026044921874 72.3487666809082,40.99414729003905 71.71438786010742,39.841248608398445 71.03402642211914,38.62642460937499 70.34665702514648,37.44245758056641 69.69936388549804,36.39084097900391 69.14521481323243,35.52591900634765 68.76032990112304,34.921551647949215 69.82126334838867,34.84402915039061 70.79596312866211,35.08812888183593 72.07323275756835,35.32897666015624 73.6124146911621,35.55615404052733 75.39901741333007,35.7626977783203 77.47308466186523,35.94749407958983 79.94367474975586,36.10035620117188 82.88838740844727,36.22556046142577 86.19156286010742,36.3096762939453 89.48510846557618,36.414210327148425 92.40295999145508,36.57428365478515 94.84169313354492,36.811005517578124 96.79778155517577,37.10762429199218 98.29066787109375,37.523553161621095 99.47907381591797,37.828830261230465 100.40128097534179,38.03345534667969 101.13450900878907,38.09231976318358 101.91269935913085,37.93501059570312 101.10274352416992,38.09028729248047 100.60702391967773,38.716621594238276 99.94680426635742,38.9866150024414 99.49016094360351,38.26879512939453 99.03346884155273,37.68337852783202 98.51323967285157,37.24951513671874 97.85328220825195,37.10729096679688 97.61038366699219,37.76318145751952 97.1341778137207,38.319155688476556 96.66398197631835,38.85773603515625 95.91430515747071,39.339939709472645 95.14504548339843,39.68304921875 94.49776047363281,39.86767885742188 93.47387083740234,40.083437817382816 92.08985991210938,40.34726877441406 90.62133682250976,40.594888745117174 89.30608438110352,40.78464020996094 88.22719812011718,40.899552038574214 87.35439219360352,40.92813670654297 86.64321849975586,40.878845227050775 85.38293219604492,40.69667487792968 84.00291304321289,40.64052990722655 83.21187951049805,40.69639033203126 82.23867562866211,40.88706453857421 81.00595775756835,41.27781516113281 79.47475123901367,41.87786555175781 77.65345424194336,42.61321345214844 75.61371135864258,43.35508558349609 73.4687393371582,43.997386975097655 71.42863467407227,44.51695559082032 69.73431831665039,44.92982355957031 68.577940045166,45.38487749023437 67.98623091430665,45.99478536376952 67.78154078979492,46.77137209472656 67.83008838500976,47.640716723632806 68.0024703552246,48.50348021240234 68.15386909790038,49.2803474243164 68.03845728149415,50.47794013671874 67.40563533325195,51.33203310546875 66.2371110168457,51.99730141601563 65.44310194702149,52.26301037597656 64.58880166625977,52.47787911376953 63.69637223510742,52.60394107666015 62.86309989624023,52.6336314086914 62.147458831787105,52.543934411621095 61.295975555419915,51.98361069335937 61.67625895385742,51.15201717529297 62.475007745361324,50.67928074951172 63.465609576416014,50.33702487792968 64.70388422241211,49.896535632324216 65.93374443969726,49.541633728027335 67.05231469116211,49.36673555908203 68.03496956176758,49.3611869140625 68.85136832885742,49.52358132324218 69.49486887817383,49.83432576904296 70.64751959838867,50.42372194824219 71.34499037475587,50.530097399902346 72.18078704223632,50.47443615722656 73.15944607543945,50.2593763671875" stroke="#ff3399" stroke-linecap="round" stroke-width="1" /></svg>