<?xml version="1.0" encoding="utf-8" ?>
<svg baseProfile="full" height="148mm" version="1.1" viewBox="0 0 210 148" width="210mm" xmlns="http://www.w3.org/2000/svg" xmlns:ev="http://www.w3.org/2001/xml-events" xmlns:xlink="http://www.w3.org/1999/xlink"><defs /><polyline fill="none" points="105.13988174743652,68.52708013877869 104.46776401062012,69.78919973106385 104.57320452575684,71.73777410850525 104.11883147277833,75.05534758262634 103.10658179626465,79.4527402217865 101.65240388488769,83.86044968223572 100.10020804138183,87.6427780696869 98.94672604064941,90.2497845424652 98.18742344055175,91.95140255088806 97.85226902160645,92.63616123924255 97.35255967712402,91.78415765037536 97.25439337463379,90.70052252159118 97.33063541564941,90.02499226646424 97.5901981842041,89.13456278648377 97.96262201843261,88.23303601646424 98.49572282409667,87.24328782310485 99.05706887512207,86.12683743858338 99.82085917053223,84.95507133140563 100.48845262756348,83.84013107261657 101.01442555847169,82.90599127769471 101.39106880187988,82.21777637290955 101.8377022064209,81.39930448570252 102.35086447448731,80.81066438560487 102.76244792175292,80.19136243247986 102.50390342102051,81.06258099937439 102.1115186920166,81.69465296592712 101.68169991760254,82.41613535118103 101.23669858703613,83.13940834312439 100.83976112365723,83.83148087730407 100.51647023620606,84.43185443077087 100.16695031433106,85.18227310142518 100.4788471710205,84.42923457603455 100.70636600646972,83.54590248374939 100.84060866394043,82.38612795372009 100.99403377990723,81.01106802940369 101.36718117370606,79.33836699790955 101.77825650329589,77.35332196617126 102.30238191833496,74.89483930625916 102.65097503356934,72.23954844322205 102.79725398254395,69.59225331993103 102.82500533752442,67.32968660850526 102.66500314636231,65.64973168907166 102.4019140411377,64.43409876670837 102.06511535339355,63.669011754989626 101.88199177551269,64.41862353477478 101.75815130310059,65.60263527793884 101.78251859436035,66.30902453575135 102.09563899841308,67.02683627891541 102.43205354919434,68.35314942588806 102.40585296936035,69.46541901817322 102.23547298278808,70.68237711143493 102.03846356506348,71.87944138145447 101.97340824279784,72.6296913570404 101.99208461608886,73.35586265220643 102.26590923156738,74.00499517784118 102.03668515319825,74.81515629234313 101.82864145202636,75.45111840782165 101.55042060241699,76.26736067466736 101.28414661560059,77.22125608482361 101.06481050720215,78.19927895469665 100.94676257629395,79.05768482627869 101.12697565612793,79.9201149898529 101.94999011535644,78.99556642417907 102.38896313781738,78.25905188560486 102.77060219421386,77.43830363121033 103.1245610321045,76.61726879844666 103.41227555236816,75.95282973594665 103.2086646697998,76.7848419429779 102.89156672058105,77.96303269004822 102.51239914855957,79.24046085166931 102.12072578430175,80.4501833492279 101.80284939880372,81.55120524864196 101.55132098693848,82.43310444908143 101.37977436218262,83.43486251182556 101.62895527038575,82.80783310508728 102.20607532653808,81.99826140708923 102.58374903259278,81.19278310508729 102.30189006042481,81.85563277549744 102.15656637268066,82.8893453426361 102.27354725646973,83.77064699668884 102.39603207092286,84.51866328697204 102.44451056213379,85.22452613487243 102.4218241241455,85.95733344688415 101.9300597076416,85.24906415367127 101.85167747497559,84.40127590904237 101.64407481994628,82.4450574092865 101.00115352478028,81.76489108848571 100.28333771667481,81.7556433467865 99.43446616516113,82.16638128623963 98.61292321472168,82.54483952598572 97.81408092956543,82.68645598716736 97.58351745300293,82.0211368648529 98.01522032775878,81.47728428916932 98.55195925598144,81.07405632896423 99.5004564239502,80.11706343345642 99.46223174743652,79.39312175865173 99.30581483459473,78.63134767417908 99.07213558044434,77.93151313438416 99.44730121765137,77.03483990440368 100.44620162658691,76.87505315513611 101.55474366760254,76.78595370445251 102.66145445251465,76.77739497032165 103.65212132263184,76.77567346763611 104.48386930847168,76.77149674034119 105.30901786193847,77.04371773643494 106.09170606994628,77.26510460777283 106.80258302307129,77.47144306602478 107.43651673278809,77.06217663536071 107.7932620880127,76.34536486778259 108.21220104675292,75.25489758872986 108.81400545959472,74.50605611534118 109.34526078186035,73.98466234092713 109.07682018127441,74.63728055381775 108.49990337219238,75.07428411216736 107.80090214538575,75.65698533287048 107.22804824523926,76.37443123130798 106.87910148010253,77.04985783042908 106.68401477966309,77.7579523311615 106.50345211486817,78.4288322933197 105.7669700958252,78.85036265220643 105.21499983215332,79.22325192222596 104.7704436126709,80.14295101280213 104.3197208770752,81.21996333580017 104.05352209167481,81.90973308067322 103.75149288024902,82.73595884361268 103.39126387023926,83.78070569419862 103.12621546325684,85.17547448692322 102.92777315368653,87.01048456382752 102.78137225646972,89.07128384361268 102.45600824890137,90.80435941734314 102.02647808532714,92.0522334224701 101.74816983947754,92.88738376426697 101.27204528503418,93.74623982810974 100.48432874450684,93.36279898643494 100.4348726348877,92.66890942344665 100.09004568786621,91.89066419639587 100.09388908996581,90.67926795921326 99.71959538269043,89.37913913230896 99.7911850982666,87.6209920162201 99.91332439270019,85.68839082603455 100.01046226501465,83.92429365196229 100.05042470397949,82.58751531333924 99.7632894378662,81.72740419883728 100.0075009552002,82.48288778648376 100.18001097106934,83.61379310264587 100.33991153869628,84.95522376670837 100.37566879577636,86.27726059532165 100.41570440368652,87.3912781124115 100.53760386657714,88.17353340415954 99.86140492858887,88.86819733848571 98.70187632751465,88.54408126792907 98.14959306335449,88.15449118614197 98.20547381286622,87.26911036338807 98.40807862243652,86.27035425987243 98.61174844665527,85.35653307456971 98.89320702209473,84.56905636558533 99.21567679138184,83.95092714805602 99.14611548156738,83.16089359092713 98.40334906311035,82.76677719688416 98.15030849304199,81.91370452842712 98.47995694885253,81.0071697505951 97.83192602233886,80.27306978721619 97.0625322052002,80.16691993980407 96.28807956848145,80.67764324302674 95.54623385925294,81.28247400474548 96.32521484069824,81.3870710445404 97.11325454406739,81.11271188926696 97.9786114654541,80.7783663936615 98.88247964172363,80.41541793785095 99.83088331604004,80.06965198936463 100.76057606506347,79.76724677085876 101.5952304840088,79.52286046104432 102.69314880065917,79.18336874961852 103.83730785827636,78.9094099910736 104.7108698638916,78.72285966758729 105.56562135314941,78.48558090782166 106.25482200622558,78.17466776695251 105.80172127990723,77.6181772884369 104.91443603210449,77.15918442955017 104.02872391662598,76.86088276939392 102.64316424865723,76.47848763389588 100.0316324798584,75.7868175289154 95.94161648254395,74.14692463951111 93.4112372039795,72.37151473350525 93.06389609069824,71.72732720909119 94.29414654235839,72.96631931724548 95.53772390441894,73.87730723838806 96.56559921569824,74.69932578697204 97.69659192810059,75.42921447105408 98.86317320251464,76.02171829795837 99.98955830383301,76.48639800987243 101.04811579284667,76.83077578086854 102.01035449523926,77.06533915977478 102.87589840393066,77.21873582115174 103.6136588470459,77.29257954673767 104.72041434631348,77.3272047176361 104.59160245056152,77.9998346370697 104.00849270324707,78.737115417099 103.31450558166505,79.19926267051697 102.70270141296386,79.54424205284118 101.89919867248535,79.91556428794861 100.68710428161621,80.25418406944274 100.00304984436035,80.32040602989197 99.32457250671386,80.30164835777283 98.64131683044434,80.22173567466736 97.93800473327637,80.09634645957946 97.26521424865723,79.9386490901947 96.24242011413574,79.561160338974 96.12720341491699,78.7907767086029 96.78312439270019,78.33365575523376 97.42593796691895,77.95332154502869 98.24836097717285,78.53723208580017 99.3246619354248,79.30372556724548 100.09823044738769,78.71690452842712 100.80752613830566,78.48185945396423 101.40322094421387,78.0937530757904 102.31621897888184,77.81996301231385 102.94581133117676,78.55449385948181 102.6235752960205,79.23035134239197 101.76954533386231,80.21928045005798 101.127351663208,80.72674976768494 100.47892237243653,81.1425851436615 99.56209922790528,81.62337625083923 100.90884277038575,81.59761265220642 101.97374969787597,81.63757305870057 103.25341764221191,81.71289439048768 104.66316777648926,81.4992573299408 106.01423438415527,80.63164030113221 107.2618299407959,79.26728133506775 107.00681990661622,77.45312847251893 106.0819542755127,76.06753222007751 105.57220249328613,75.28366517906188 104.46568072814941,75.3302412776947 103.16575514831543,76.19546405601501 101.92405985412597,77.39296733970642 99.28584377746581,78.96511188316346 97.04562001647949,80.7580803035736 94.76992760925293,82.05220114707947 92.6219922454834,82.71702434654236 90.82376785583496,82.85001296958923 89.25764349060059,82.73504016685486 88.36359214782715,82.64300379600525 89.33911304626464,83.32650540122987 90.51655584411621,83.2887481929779 91.62932948913574,83.36739261436463 90.9199850189209,84.01749056358338 91.08052174987793,85.34848652305604 91.79985378112792,86.14910925254821 92.40882265319824,86.58722253990173 93.2829842376709,87.12548378868104 93.9292774017334,85.96786164512635 94.65566820373535,85.3671994808197 95.2141931854248,84.54564636802674 95.76822030944824,83.28807138023376 96.59574075622558,82.3456187801361 97.82210512390137,81.13742470054626 99.4308077178955,79.69303923301698 101.37049003601074,77.99737941246033 103.47079241638184,76.09442587242127 105.53633141784668,74.13567897911072 107.44326860046387,72.34610884971619 108.21701190490722,72.18768995323181 108.94327466125489,72.10831790733337 108.37344914245605,74.18653546104431 106.4247121673584,77.6564954586029 103.12790851135254,79.59750498008728 99.9170986907959,81.02572824058532 98.23430440979004,81.33077363853455 96.35547426452636,81.47044096031189 95.14149577331543,81.90997291221619 95.51495007019042,82.60045808677674 96.26045625915528,83.12953663291931 97.25425719909668,83.7974105709076 96.80872132873534,84.80393477745056 97.03259594421387,85.63734938926697 96.59025715026856,86.43089708824158 96.10269791564941,87.01387472496033 95.96910971374511,87.68358804893494 96.79966870422363,87.89567839927673 97.58019842834473,87.86558563804627 98.22144293518066,87.50936262779236 97.58465157165527,87.26143168907166 96.86041112365723,87.55675374717713 96.49420055236817,88.11872579917907 95.77033611145019,88.5250431148529 96.52008406677245,88.03058973960876 95.55439626159668,87.89315813560486 94.64635542297363,87.67951904258729 95.19479325256347,87.10196810264588 94.44273641052246,86.88236167564392 95.12635589904785,86.83873672447206 95.88399593811035,87.01527916221619 96.72307098083496,86.86286011924744 97.35762052917481,86.6489791622162 96.56151394958496,86.68061660118103 95.84970205993652,87.2249691646576 96.46579474182128,88.03608554039002 97.41738329772949,88.34814092979431 98.7664214996338,88.35203514366151 99.44213264465333,88.10944960289001 100.83076540832519,86.88708107261658 101.12174001159669,86.15000150718689 100.44158791809082,85.6208436946869 99.22896508483886,86.03850422935486 98.20282550354004,86.80041245689392 97.61460612487792,87.68599042930603 97.3185950592041,88.56163774986267 97.34199895935059,89.23315590782165 97.73831042175293,89.85620370445253 97.37704281921387,90.72165920066834 97.01048469543457,91.28006325035095 97.78766694030762,91.64022925376892 98.59418586730956,91.32973378562927 98.52530950012206,90.5963655117035 97.77505342712402,90.06947898521423 96.94173637390136,90.06328604698182 96.2739376373291,90.09128942832947 96.80987780456543,90.51151697349549 97.27232586364747,91.17622635459901 98.15235112609864,91.2174275844574 98.86684384460449,91.17592453269958 98.07503797302246,90.86126656455994 98.20322386779785,90.1986557094574 98.83688319396973,89.66881905174256 98.23099554748535,89.05850976524353 97.5872043548584,88.82185700645447 96.95893717346192,88.56949934654236 97.50884854431152,88.947207604599 98.144790335083,89.14693240318299 97.40452792053223,89.29815330467224 98.24351963195801,88.88098157920837 98.96776007995605,88.58328762779236 98.68668970642089,87.71033739585877 97.95763433532714,86.49221469688416 97.54509156188965,85.82034492149353 96.89840206604003,84.47497329673767 96.58133460388183,83.71230086021424 96.8001707244873,82.87455302085877 97.09362900695801,82.23279633140564 97.8791667388916,81.39317252159118 98.31964582214356,80.87249214439392 99.26822022399902,80.20741082115174 100.38613398742676,79.84081408042908 101.36121790466308,79.81508706626892 101.23304826965332,80.56943043785095 100.48397306213378,81.21015869712829 99.4339214630127,81.83579179649354 98.36504308776856,82.45586202354431 97.59254975280761,82.95224624595642 98.49891990051269,82.60179138755798 99.79858329162597,82.38465847740173 101.1212339263916,82.17203358726502 102.25158641052246,82.08674705162048 103.09506378479004,82.36411426353455 103.97305047912597,82.85251697349548 103.9171331451416,83.53827462120056 103.19255530700684,84.46060372886657 102.09309434509278,84.38331496543884 101.30276607971192,84.40933668785095 100.62505498352051,84.49032658042907 100.18418973083496,83.95153282432557 99.864087789917,82.8051136592865 99.97287781677247,83.56779016075134 100.84195415954589,83.44296800498962 101.29149399719238,82.7766306148529 101.7102886505127,81.90377184410096 101.91120244445801,81.19379324302673 102.24930801086425,80.06927801475526 102.37673376159668,79.3408120601654 102.57083471374511,78.114301354599 102.50830778503418,76.78408992881775 102.29029684753418,76.0788977962494 101.32391596984863,75.60330168418885 100.41993194274902,76.29252875938415 99.95971756896972,76.91320059776307 99.31498940734863,76.49780017051697 98.32239778747558,76.6016248714447 97.58164757995605,76.55547152671814 96.54831101989745,76.374116198349 95.35342759094237,76.05275412559509 94.2395787689209,75.70742719078063 93.11577287292481,75.53131157188416 92.12017116394043,75.16723306236267 90.89574983825683,75.0880297115326 89.6151063079834,75.21855091514587 88.63080107116699,75.76897650108337 87.7200021697998,75.93710247764588 86.7563793548584,75.99544658164979 85.96929288024901,76.49110521202087 85.4851299041748,77.30262808189391 84.98310151062012,77.76775696983337 84.64202853698731,78.65650559654236 84.53618559265136,80.13028872032166 84.31400402526856,80.82397910118104 84.20262869567871,81.57345673789978 84.16178416442871,82.31136148643493 84.34976331481934,83.44456349449158 84.54612843933106,84.33562507286072 84.78456977233887,85.11000047569274 85.03354336853027,85.75839114952088 85.65418675231933,86.81537753868103 86.22939222106933,87.29208947715759 86.92563132019043,86.99928158531189 87.69521415710449,86.41714132652282 88.33633265075683,85.96501618614197 88.93075716247559,86.67745814170837 89.35783210144042,87.26671611289979 89.98058925476074,87.82481427574157 89.27703732604981,87.93746802940369 88.5029424041748,87.99916774253845 87.83213764343262,88.215127917099 87.16628398132323,88.08084461021423 87.30754882507324,88.80930853233338 86.84577961120605,89.29041263999939 87.5521282196045,89.6951801967621 88.36086457214356,89.92509226646423 88.99768642272949,90.16190762290955 89.69189305114746,90.41962998924255 90.42358656921387,90.66079280052185 91.12361419372559,90.85221597251892 91.82073132019043,91.04193288536072 92.69866517028808,90.95271148643494 93.02349870300293,90.24859859580994 93.6611172821045,90.03026449546815 94.05749378356933,89.3781859035492 94.46256925964356,88.6050370967865 94.3558686126709,87.76658195762634 93.95140694274902,86.94796170005799 94.23042858581543,86.11291094932557 94.26075711364746,85.40826961631775 94.22626608581542,84.73197108726501 94.6800212677002,84.22080267295837 94.54642900085449,83.52607979698182 95.10421213073731,83.10513072471619 94.43045215759277,83.59558623008728 93.93173669128419,84.24168224449159 94.23126596374512,84.86712632408143 93.90194067077637,85.47517855186462 93.86617731628418,86.18080766563415 93.56334324645997,86.78143121299743 93.32021503601074,87.53513435630799 93.67141377868653,88.1059883052826 93.97788190612793,87.28067715415955 94.83206023864746,86.49153585166931 95.27465918884278,85.87568096885681 95.68835843811036,85.16940552940369 96.0464899383545,84.46270530357361 96.46888612976075,83.81287157554627 97.80755466613769,83.57734074058533 98.52618143005371,83.69307978477478 98.64836340637207,82.9851397518158 98.97007912902832,81.51154564781189 99.15406040954589,80.13869705162048 99.58993391418457,78.27743151817322 99.3746099029541,77.19333806724548 98.53168942565918,77.34168200645446 97.60467547302247,78.95764458580017 96.51853938903808,80.84118396568299 96.11987635803223,82.40979404258728 96.3551714263916,83.50887696495056 97.15995462341309,84.14714593467713 98.33074107971191,84.50590750083924 99.6229270111084,84.78393526573181 100.39209928894043,84.16988521690368 100.94531342468261,83.29135585289002 101.57328793029785,82.16690566368104 102.04110374450684,81.30830060997009 102.62904467468262,80.8015894039154 103.34651293029785,81.50605797691345 103.70839027404786,82.55436165122985 104.03387216491699,83.19375457725525 103.46277635192871,84.21167281455993 101.92138918762207,84.51745396690369 100.50658836364747,84.72514198570252 99.0903891998291,84.87272374839783 97.78893723449707,84.88850588340759 96.80204872741699,84.89414395713806 96.06176802062988,84.77331560630799 95.31761952209473,84.27001488609314 95.98274555969238,83.54001238365173 96.94406965026856,82.84344402427674 97.58475929260254,82.46181919517517 98.32668426818847,82.04561390953064 99.04661384582519,81.56808085289002 99.74558255310059,81.10096827354431 100.40780825500488,80.76943368492127 100.52903090515137,80.0526625667572 100.19452281188964,80.81332488975525 99.38108128967285,81.89385948448181 98.42232217712402,83.42308231163025 96.41612928771973,85.2700270565033 86.25650131530762,85.0013486568451 87.27543172302246,85.57244853477478 88.32690605163575,86.13268282432557 89.09776121520996,86.31523934288025 89.95648008728027,85.99509268760681 90.40235131530761,85.35812449913024 89.76312301940918,85.15541603355408 89.13008562927246,85.43325477867127 90.13800817565918,85.20878464927674 91.77508202819824,85.47394484214783 93.90894862976074,84.18848029136657 96.24678586120605,80.60963067588806 97.60442547912598,76.9936071712494 98.25909039001465,74.4119527217865 98.58581208801269,72.57798123741149 98.73253005065918,71.30983333702088 98.77957361755371,70.46231337852478 98.75878144226074,69.71904697227478 98.88294914245606,70.81147558555602 98.95079504699707,71.55212823448181 98.99374725036621,72.28738264122009 98.99747073669434,73.44446211509704 98.95412016906738,74.1990819026947 98.86160007019043,74.9798778804779 131.39827902145385,63.84716187705993 131.22033189239502,62.018893505477905 130.44328023376465,62.1224356929779 129.31102605571746,63.09651353721618 128.04738916053773,64.26861500205993 126.85390572280883,65.26039566612243 125.74784583663941,65.9749595211029 124.81306505126953,66.42785496788025 124.11641488494874,66.68822665977478 123.5480349609375,67.06698570518493 123.87118560791015,67.65368682823181 124.09674260101319,68.42420866661072 124.16410223693848,69.17745856895446 124.033180128479,70.50929190635681 123.92555216674805,71.33405225791931 123.87654878997803,72.08131450157165 124.0845274520874,72.99464586143493 125.13982409591675,72.77402726402283 125.960677784729,71.83355225791931 126.3800570274353,71.25674113731384 126.84204053993226,70.68688919639587 127.3045067642212,70.14901208457947 128.12787068138124,69.21868113975525 128.58394228441716,68.54076273155212 128.28551965255738,67.93352958946228 127.45947884445191,67.98930871543884 126.79914905662537,67.81006105918884 126.20235785980225,66.7635622188568 125.98263431167602,65.36503132286072 125.82805322799683,64.36962066612243 125.71995170059205,63.05474626426697 125.77852547378541,61.653528442001345 126.09864773941041,60.817061059188845 125.44466243591309,61.932005382919314 124.9156542640686,62.87247022666931 124.4748100982666,63.85907215538025 124.18462866668702,64.94275301475525 124.0666564453125,66.18965346641541 123.91497722167969,68.10608635215759 123.96227738800049,69.92396473350524 124.06447916107177,71.47520734825135 124.05183414459229,72.82982468223572 123.69937628631592,74.00889752159118 117.12223147888184,76.8094856502533 119.31832623596192,75.42609869346619 122.07251204223633,73.91828184776305 124.42080481109619,72.57966005821228 126.17904364242554,71.52985235557556 127.33422326431275,70.78450469932557 128.04642386398316,70.3141625240326 128.4386930914879,69.66106058311462 127.96980816593171,69.07514805870056 127.19269813728333,69.34615770225525 126.4743629058838,69.45558998985291 126.9493278087616,68.7588915523529 127.23950682678223,67.72144127159119 127.17993142662048,66.54950646934509 127.0969028388977,65.84723093223572 126.90765098075866,64.81689836387635 126.08571334991456,65.07327828330993 125.55554514541626,64.3993801021576 125.28330534896851,63.77703350791931 125.0299278968811,63.16102822227478 124.46212468643188,62.340048266220094 123.65079718780518,62.09810295372009 122.65397091522217,62.0215601070404 121.71128407287598,61.88433581504822 121.70668509979248,61.03534434776306 122.18938774566651,60.54153933067322 122.93060999450684,59.99000808067322 123.54473727722169,60.65250410118102 123.68047024383546,62.10956202354431 123.83482826385499,63.03920599327087 124.03484319763183,63.90583117637634 124.1503972869873,64.62128931846618 124.59832207260132,65.35472263145446 125.29229268035888,66.67240590782166 126.35608251113892,68.11775273399353 128.02000314216613,69.3482714717865 129.6514125623703,69.7746065914154 130.04976621322632,68.94796417198181 129.1925873823166,67.41457071495056 127.83869068622589,65.75441206016541 126.29367930908204,64.09990773887634 124.77527938842773,62.74189211387635 123.37737144470215,62.075062865829466 122.17832856445312,62.27352143516541 121.38027335357665,63.160938793563844 121.07717150573731,64.35364138145447 121.13678488769531,65.43282641563415 121.31889629516601,66.22018930625916 121.52049858856202,67.0479699092865 122.27415955810547,65.9386595943451 122.97527557067872,64.63685397911071 123.82186770629883,63.12048043174744 124.7245473953247,61.664304601669315 125.59209836883545,60.595420129013064 126.30670871658326,60.121143090438835 127.0860023174286,61.00701983604431 127.3238462310791,62.138167016220095 127.57920305557252,63.577160338974 127.93187673683167,65.237477526474 128.39221150274278,67.03824656944275 128.88112052021026,68.85536074180602 129.3100196651459,70.51333245811462 129.5895168428421,71.88336404991149 129.65833229942322,72.92664142417908 129.52232768039704,73.62488047447205 128.83630133371352,74.06772332115173 128.20833340187073,73.84449299888611 126.27565612106324,75.05014445762635 124.33650402374268,76.67177153282165 121.27269366302491,78.65059517173768 119.42411328735352,80.42229581871032 117.58714492492676,82.13821124229432 113.50119895019532,84.16298497886658 110.41112906799316,85.34352932701111 106.91609447937012,86.04262607994079 103.61597383117676,86.06899128990173 100.62215871276855,85.99939949302674 103.92846823425293,80.94709398155213 106.8886337677002,77.62111827354431 111.84125573730469,74.63538629112243 117.12450987854004,72.00647486534119 120.91102972869874,69.51612509727478 125.17513852844239,67.98941846885681 128.98651667032243,68.04485613975525 132.1668372390747,68.82960933799744 130.6024284061432,69.97551225547791 125.13521165771485,71.76366778526307 118.21711938171387,73.42720440635681 111.19788018493652,74.03316928672791 106.19650838928223,72.6304697933197 103.55450378723144,71.4808982662201 101.89731050720215,71.19014926719666 100.97986339416504,71.95980933799744 100.45970129699707,73.37103707847595 100.09053551330567,75.00111719932556 99.87482736511231,76.56193478355408 99.98078819274902,77.85823646812439 100.60056574401855,78.20660804405213 100.54201432800294,77.09510266075134 100.38092273254395,76.3096645198822 100.085740914917,75.70169155845642 99.9838978729248,74.9815709285736 114.5496875793457,73.27501909751892 116.88117943725587,71.36079957237244 117.30350042724609,70.76922051963805 116.88117943725587,71.36079957237244 117.30350042724609,70.76922051963805 116.88117943725587,71.36079957237244 117.30350042724609,70.76922051963805 121.86712478027344,68.2617898677826 110.84903707580567,67.42987521934509 121.86712478027344,68.2617898677826 110.84903707580567,67.42987521934509 126.47269399337769,64.02169826622008 108.60624020690918,68.02158841514587 126.47269399337769,64.02169826622008 108.60624020690918,68.02158841514587 129.22408096046448,59.165881859970085 107.71402012023925,69.07550577354431 129.22408096046448,59.165881859970085 107.71402012023925,69.07550577354431 132.2420432281494,55.100940453720085 137.5914207550049,53.046978405380244" stroke="#ffcc00" stroke-linecap="round" stroke-width="1" /></svg>