<?xml version="1.0" encoding="utf-8" ?>
<svg baseProfile="full" height="148mm" version="1.1" viewBox="0 0 210 148" width="210mm" xmlns="http://www.w3.org/2000/svg" xmlns:ev="http://www.w3.org/2001/xml-events" xmlns:xlink="http://www.w3.org/1999/xlink"><defs /><polyline fill="none" points="95.59017994079589,58.68302030029297 132.15035237731934,73.29749885864258 86.37858979797363,77.72534807128906 95.45381335144043,58.6577444946289 127.66632262573242,74.3741107849121 86.97339844665527,77.79123873901368 95.32827983093262,58.65554536132812 124.63769026794434,75.12777734375 87.46659981994628,77.8609219970703 95.32827983093262,58.65554536132812 124.63769026794434,75.12777734375 87.46659981994628,77.8609219970703 95.32827983093262,58.65554536132812 124.63769026794434,75.12777734375 87.46659981994628,77.8609219970703 95.32827983093262,58.65554536132812 124.63769026794434,75.12777734375 87.46659981994628,77.8609219970703 95.21216274719238,58.69488992919922 122.56958425598145,75.60656443481446 87.86553316955566,77.93270682983399 95.21216274719238,58.69488992919922 122.56958425598145,75.60656443481446 87.86553316955566,77.93270682983399 95.11881543273925,58.76464838867187 121.25944297027588,76.04405781860352 88.19089717712401,78.00319596252442 95.11881543273925,58.76464838867187 121.25944297027588,76.04405781860352 88.19089717712401,78.00319596252442 95.04562819519043,58.86054848632813 120.53899257202148,76.54683212890625 88.45965281066894,78.06919638366699 95.04562819519043,58.86054848632813 120.53899257202148,76.54683212890625 88.45965281066894,78.06919638366699 94.99553388977051,58.98167154541015 120.43931411132813,77.6609146850586 88.68624077453613,78.1308635772705 94.99553388977051,58.98167154541015 120.43931411132813,77.6609146850586 88.68624077453613,78.1308635772705 94.9654167388916,59.124094897460935 120.8322369369507,78.8831978515625 88.87943117980957,78.18699838562011 94.9654167388916,59.124094897460935 120.8322369369507,78.8831978515625 88.87943117980957,78.18699838562011 94.95108782043457,59.28707872314453 121.38250449829101,80.06709476013184 89.0449738861084,78.23739654541015 94.95108782043457,59.28707872314453 121.38250449829101,80.06709476013184 89.0449738861084,78.23739654541015 94.95144350280762,59.46336710205078 121.79732770385742,81.16183022766113 94.95144350280762,59.46336710205078 121.79732770385742,81.16183022766113 94.96320744323731,59.65691318969726 122.02892265930176,81.92683187561035 94.96320744323731,59.65691318969726 122.02892265930176,81.92683187561035 94.98658695373535,59.86459104614258 122.25677685241699,82.21402100219727 94.98658695373535,59.86459104614258 122.25677685241699,82.21402100219727 94.98658695373535,59.86459104614258 122.25677685241699,82.21402100219727 95.03571177062989,60.07840493164062 89.51381203308105,78.38517545776367 122.56852127380371,81.78333741149902 95.03571177062989,60.07840493164062 89.51381203308105,78.38517545776367 122.56852127380371,81.78333741149902 95.11226071472169,60.29252978515625 89.59745226745605,78.41089332580566 122.88342008972168,80.63460427856445 95.11226071472169,60.29252978515625 89.59745226745605,78.41089332580566 122.88342008972168,80.63460427856445 95.21534966125488,60.48853312988281 89.67155614929199,78.43310416564941 123.15179768371583,79.00565827636719 95.21534966125488,60.48853312988281 89.67155614929199,78.43310416564941 123.15179768371583,79.00565827636719 95.33546461486816,60.64913489990235 89.73768664855957,78.45245735168457 123.3644256225586,77.10547296142578 95.33546461486816,60.64913489990235 89.73768664855957,78.45245735168457 123.3644256225586,77.10547296142578 95.46872762145996,60.76171141967774 89.79690471496582,78.46934311828613 123.45999849243164,75.03420442504883 95.46872762145996,60.76171141967774 89.79690471496582,78.46934311828613 123.45999849243164,75.03420442504883 95.56316230773926,60.86730843505859 89.8500944732666,78.48410292053222 123.40800890808106,72.7844849609375 95.56316230773926,60.86730843505859 89.8500944732666,78.48410292053222 123.40800890808106,72.7844849609375 95.67816153259277,60.900675506591796 89.8982233795166,78.49714731750488 123.34984366149902,70.44653797607423 95.67816153259277,60.900675506591796 89.8982233795166,78.49714731750488 123.34984366149902,70.44653797607423 95.75689335021973,60.92557937011719 89.94190117492676,78.50860740356445 123.36854137573242,68.05976697998047 95.75689335021973,60.92557937011719 89.94190117492676,78.50860740356445 123.36854137573242,68.05976697998047 95.85643563537597,60.86918440551757 89.98179450988769,78.51896995544433 123.53799049072266,66.1039956237793 95.85643563537597,60.86918440551757 89.98179450988769,78.51896995544433 123.53799049072266,66.1039956237793 95.95008985290528,60.78199750976563 90.01804362487793,78.52836200256348 123.85584451904298,64.86079020385742 95.95008985290528,60.78199750976563 90.01804362487793,78.52836200256348 123.85584451904298,64.86079020385742 96.03595767517089,60.6606142944336 90.05108143615723,78.53670935974121 124.27982807006836,64.4222765197754 96.03595767517089,60.6606142944336 90.05108143615723,78.53670935974121 124.27982807006836,64.4222765197754 96.0919918762207,60.52738177490234 90.08137744445801,78.54411060180664 124.54006053771973,64.45572692260743 96.0919918762207,60.52738177490234 90.08137744445801,78.54411060180664 124.54006053771973,64.45572692260743 96.0919918762207,60.52738177490234 90.08137744445801,78.54411060180664 124.54006053771973,64.45572692260743 96.08589751281738,60.438709143066404 90.10923245544433,78.55069682312012 124.79269258117677,65.00371557617187 96.08589751281738,60.438709143066404 90.10923245544433,78.55069682312012 124.79269258117677,65.00371557617187 96.05711976013184,60.32391723022461 90.13500215148926,78.55647920227051 125.03568969726562,65.84435968627929 96.05711976013184,60.32391723022461 90.13500215148926,78.55647920227051 125.03568969726562,65.84435968627929 96.01937779541015,60.201206811523434 90.15887351989745,78.56157054138184 125.34524209899902,66.87436909179688 96.01937779541015,60.201206811523434 90.15887351989745,78.56157054138184 125.34524209899902,66.87436909179688 95.96841664123535,60.10029057617187 90.18104777526855,78.56608973999023 125.67920040893554,67.89916724243164 95.96841664123535,60.10029057617187 90.18104777526855,78.56608973999023 125.67920040893554,67.89916724243164 95.9100379852295,60.01696334228515 90.20170783996582,78.57005407409667 125.95638266601563,68.81371198730469 95.9100379852295,60.01696334228515 90.20170783996582,78.57005407409667 125.95638266601563,68.81371198730469 95.84985449523926,59.93414016113282 90.22100208435059,78.57351943664551 126.09325229187012,69.59092471923827 95.84985449523926,59.93414016113282 90.22100208435059,78.57351943664551 126.09325229187012,69.59092471923827 95.7947277923584,59.85243280639648 90.23906058654785,78.57656611022949 126.12319261779786,70.19086332397461 95.7947277923584,59.85243280639648 90.23906058654785,78.57656611022949 126.12319261779786,70.19086332397461 95.74687733459473,59.75300840454102 90.25598903503418,78.57926726379395 126.04143648376464,70.66549807739258 95.74687733459473,59.75300840454102 90.25598903503418,78.57926726379395 126.04143648376464,70.66549807739258 95.71794511413574,59.61313986816407 90.27188092346191,78.58167574157714 125.86202013244629,71.14923829956055 95.71794511413574,59.61313986816407 90.27188092346191,78.58167574157714 125.86202013244629,71.14923829956055 95.69570175476073,59.45556241455078 90.28682364807129,78.58382914428711 125.62158189697266,71.70114758911133 95.69570175476073,59.45556241455078 90.28682364807129,78.58382914428711 125.62158189697266,71.70114758911133 95.69585825500488,59.23048660888672 90.30089241027832,78.58575491027833 125.31262094421388,72.28234478149415 95.69585825500488,59.23048660888672 90.30089241027832,78.58575491027833 125.31262094421388,72.28234478149415 95.69218964538574,58.94695288085937 90.31417054138183,78.58749775390625 124.90164622192383,72.76033717651367 95.69218964538574,58.94695288085937 90.31417054138183,78.58749775390625 124.90164622192383,72.76033717651367 95.6814988494873,58.60408726806641 90.3267027557373,78.5890556427002 124.45309416503906,72.98893931884766 95.6814988494873,58.60408726806641 90.3267027557373,78.5890556427002 124.45309416503906,72.98893931884766 95.6814988494873,58.60408726806641 90.3267027557373,78.5890556427002 124.45309416503906,72.98893931884766 95.66736301574707,58.2227591796875 90.33855002746581,78.59046719360352 123.95201696777343,72.98182160644531 95.66736301574707,58.2227591796875 90.33855002746581,78.59046719360352 123.95201696777343,72.98182160644531 95.64804641418456,57.83385810546875 90.34975910339355,78.59174866638183 123.35172268066407,72.70462918701172 90.34975910339355,78.59174866638183 123.35172268066407,72.70462918701172 90.36037876281738,78.5929244506836 122.7543927520752,72.18686947021484 90.36037876281738,78.5929244506836 122.7543927520752,72.18686947021484 90.37044965515136,78.59399353027344 122.33406155090333,71.59483311157227 90.37044965515136,78.59399353027344 122.33406155090333,71.59483311157227 90.40593252868652,78.59745686035156 123.37367539672852,71.29640747070313 90.40593252868652,78.59745686035156 123.37367539672852,71.29640747070313 90.41375550842285,78.59814586791992 124.17089881896973,71.6563742919922 90.41375550842285,78.59814586791992 124.17089881896973,71.6563742919922 90.4212065460205,78.59877796630859 125.21491601257324,72.21495008544922 90.4212065460205,78.59877796630859 125.21491601257324,72.21495008544922 90.42831003112792,78.5993653503418 126.45019682922364,73.03394025268555 90.42831003112792,78.5993653503418 126.45019682922364,73.03394025268555 90.43509238586425,78.59991208496093 127.82207593688965,74.16712396850586 90.43509238586425,78.59991208496093 127.82207593688965,74.16712396850586 90.43509238586425,78.59991208496093 127.82207593688965,74.16712396850586 90.4415576751709,78.60039987792969 129.13229191589355,75.39399645385743 90.4415576751709,78.60039987792969 129.13229191589355,75.39399645385743 130.03276789855957,76.28978352661133 128.86777195129395,74.31078916015625 128.2272012084961,73.27864159545898 127.62628803405762,72.3048848815918 127.08008897094727,71.46498668823241 126.5717304473877,70.78481020507813 126.08522708129883,70.19404007568359 125.63022599487304,69.55198867797851 125.17642508239746,68.90271794433593 124.69516752319336,68.27263373413086 124.22652855834961,67.7016253173828 123.48880266723633,66.96929563598633 122.94805265808105,67.40047006835937 122.22208765869141,67.38036283569336 121.63925432739258,67.04494622802734 120.80428081054687,66.58730089721679 121.1906773727417,65.97696213989258 122.27857408447267,66.2061028869629 123.26176044616699,66.8152059020996 123.95818551635742,67.4064069152832 124.73879653930663,67.86081045532227 125.47308044128418,68.19680428466796 126.3052948791504,68.66338029174804 127.21111117858887,69.14188690185547 127.89626721496582,69.59863184814454 128.42614452209472,70.03575328979493 129.1575412994385,70.7167610534668 128.40281379089356,70.74842491455078 127.27214525756835,70.01170509643555 126.06018399353027,69.142752734375 124.86297236938476,68.26077020263672 123.8418875427246,67.44163572998046 123.13692914428711,66.78456437377929 122.65092373352051,66.29603565063476 122.81426527404786,67.26093892211914 123.23996524658203,68.47035451660156 123.48467776794433,69.18178836669922 123.70527095947266,69.88176721191407 123.84069753112793,70.53828167114258 123.73764110412597,71.43061760864258 122.81669915771485,71.53086719360351 122.08826978759765,71.16308145751952 121.5040838470459,70.81176889648438 122.16930845947266,70.61131850585937 122.516618069458,69.96034252929688 122.63276259155273,69.27736123657226 122.37495587768555,68.66055109252929 122.18981913757324,69.31879111938477 122.08590805664062,70.01918255615234 122.48404874267578,70.5707422607422 122.19072561950684,69.81900451660157 111.89800308151246,65.59433936767579 122.02933016967773,69.47660840454101 111.89800308151246,65.59433936767579 122.02933016967773,69.47660840454101 114.9276328742981,55.27716849365234 122.0243963470459,69.44103813476562 114.9276328742981,55.27716849365234 122.0243963470459,69.44103813476562 115.04797178077698,55.578104235839845 122.0572136352539,69.46758016967773 115.04797178077698,55.578104235839845 122.0572136352539,69.46758016967773 113.54325191230774,60.01156306762695 122.10889326782227,69.532726953125 113.54325191230774,60.01156306762695 122.10889326782227,69.532726953125 108.03642230987549,74.80365924072265 122.19405480651855,69.67432512207031 108.03642230987549,74.80365924072265 122.19405480651855,69.67432512207031 122.61418784179688,70.2906942199707 109.26015132522583,72.4631879272461 104.10819148864746,93.20420748872758 102.17696323242187,100.34383243408203 100.29022271118164,108.6412985534668 99.2106860595703,113.57630611572266 98.58327658081055,115.30673541259766 98.52415810546874,113.9990844116211 99.09867558288575,110.90512946166993 99.98217637023926,107.7196970703125 100.84737272644043,105.1626822631836 101.53654085998535,103.1736281829834 102.00986568603516,101.56008068695068 102.30320506896973,100.12770102386474 102.46382208251953,98.73800883483887 102.53912207336425,97.27932061691284 102.54523981018066,95.74305426254273 102.47308710021973,94.24251759986878 102.31054432067872,92.97963373508453 102.06528099975586,92.08141906661987 101.26538386230469,92.09903118743897 100.57294548339844,92.2314744731903 100.34638089294434,91.47887534255982 100.32581635437012,92.49972478370667 100.50084866638184,93.2928884092331 100.681276171875,93.98325450959206 100.85352095031739,94.75846987857818 101.24745137329101,95.35586910171509 101.70595237426758,94.59865073680878 101.87989324951172,93.42686500358582 102.38421731872559,91.7342380104065 103.95805186157227,86.94123231658935 107.1959347000122,75.46217771606446 109.686565965271,65.56984606323242 111.96458771095276,56.897263085937496 112.5500515039444,47.8829791015625 112.11597711696625,40.06065788574219 118.6642014541626,33.241633312988284 126.11202215881347,29.66257435302734 127.84018626708985,35.00898040771483 133.97407004699707,48.7020810546875 133.15267749938965,47.96864367675781 132.55316774597168,47.264734033203126 133.2754326324463,47.290196826171865 133.65763265075685,47.88345469970703 133.09777233581542,48.30768011474609 133.59908936462404,48.75275461425781 133.55659040222167,48.0662632446289 132.49487242126466,48.00371599121094 131.32196406555175,47.86960544433593 129.0520641998291,47.2887171875 121.88895656433105,48.019731860351555 113.9347639492035,53.00403293457032 110.65754810256958,56.832167114257814 109.04351814880371,58.0474829711914 108.32225476226807,58.539649816894524 107.45878549804688,58.37386118164062 107.15610691223145,57.64248472900391 107.74769511108398,57.21732031249999 108.44826743774414,57.46027779541015 109.21292636032105,57.955416113281245 109.7281856300354,58.45206252441406 109.9861125137329,61.1791707397461 111.9571514087677,64.64197847290039 121.2172615814209,69.4852443725586 123.8156646057129,71.9229795715332 126.31720210876465,72.74741676025391 128.26230197753907,73.38240532226563 128.62213770446778,74.09793866577148 128.90642344665528,75.04812481689453 125.9942445465088,74.98192724609375 123.16076189575196,69.50545729370117 121.67069969787597,64.11231457519531 119.81549448394776,60.333091802978515 117.66802811279297,59.32214697265624 115.30622551116943,59.755221765136724 111.5075920085907,60.59600611572266 107.72756348876953,61.8287869934082 104.77448518066406,63.37973896484375 103.05560336608886,65.08494123535156 102.39711639404297,66.68499973144532 102.40111832885742,67.98003721923828 103.04078157348633,69.09822739868164 103.93103219604492,69.74279906005859 104.90117720947265,70.00672351074219 105.88377313842773,70.00919296264648 106.80744774169922,69.80008627929688 107.64776208343505,69.14138488159179 109.37923200531006,65.8813709777832 111.92107797546387,62.233378741455084 113.49500274095536,59.529800439453126 114.71437702903748,56.65910629882812 115.42709552764893,54.867865478515625 114.95215666580201,54.19687779541016 114.48491324615479,54.87722703857422 114.27119463272095,55.93830682373047 113.6593175491333,56.68938198242188 112.89738267717361,57.601416625976555 114.8019774055481,57.08059600830077 117.42028771820068,55.10470928955078 119.79553308105469,54.28298544921876 122.45094081115722,52.89582825927734 125.86069902648926,50.79597708740235 128.6544550048828,50.28600579833984 129.2246758392334,50.71743835449219 128.29242827453612,50.78805451660156 126.45380852966309,50.45679431152344 124.4171854888916,50.14481005859375 123.30120054016113,49.97909459228515 125.03679739379884,49.62105861816406 127.13358156738282,49.3790076171875 129.30150628051757,49.124769921875 131.19123758239746,48.705479345703125 132.69963977966307,48.56586893310546 133.84456304626465,48.65914307861328 134.68699776306153,48.902820056152336 135.31549664611816,49.24549461669922 136.04966774597168,49.87684505615235 135.82825242004395,49.18478878173828 135.44935923156737,48.55196276855469 134.9858400604248,47.91314909667969 134.27419483337403,47.300033984375006 133.63429582214354,47.06392186279297 132.85342464294433,47.141785815429685 132.23466332702637,47.40312089843749 132.06001515197755,46.65675700683593 131.61008507995606,46.09482763671875 131.0666471282959,46.63272913818359 131.1571733734131,47.296103186035154 131.96564347229003,46.970525769042965 132.69264401550294,46.80226971435546 132.2525104522705,47.346963732910154 131.62170877990724,47.621676538085936 131.81109846496582,46.885109155273426 131.21529797058105,47.27869710693359 130.97464734191894,48.00645169677733 130.27516035461426,47.908539453125 128.97541566467285,47.96996071777343 127.23761866149903,48.06653966064454 124.49531264648438,48.37120701904297 120.12620641021729,49.200999768066396 113.37704503269195,51.526516162109374 109.10600493621826,54.50493937988281 107.16218704833985,57.11240417480468 106.58722750854493,58.61235129394531 106.25421429748535,59.54397895507813 106.06750340881348,60.22560052490235 106.00837324676513,61.28849937133789 105.57851585540772,59.62060310058594 107.25046385650634,56.36139405517578 113.21597493696213,52.23159650878907 122.60733739929199,49.159606469726555 130.67375021667482,47.84956528320312 135.08480105895995,46.70407292480468 136.3934784576416,47.278180859375 136.44321098327637,48.78614810791015 136.4367883758545,50.15111884765625 136.44508492126465,50.90639715576171 135.5917399017334,50.697459167480474 135.0314934173584,50.2467587890625 133.514203225708,49.38847486572266 131.52931266174318,48.267010375976554 128.65355462036132,47.483419750976566 124.7970390197754,47.209511804199224 120.9617104019165,47.600632336425775 117.27423234100343,48.68100026855468 114.53784043464661,50.11718878173828 112.93363866763114,51.39687298583985 111.81276748466492,52.25178300781249 111.00883284416199,52.74391733398437 109.94442628555298,53.23964913330079 109.30820020294189,53.49329741210937 108.87638350982667,54.47277349853516 108.84835573883056,55.22605592041015 108.93624968032837,56.02173974609374 109.36737355499268,56.633070349121084 109.76092619247437,57.36564595947266 110.38150783996582,58.701133679199216 110.67523872756958,59.575539160156254 110.91719191589355,60.37329204101562 111.27505716247559,61.02839393310546 111.73528906631469,61.58375232543945 112.44794290695191,62.07549641723632 113.54219813976287,61.86784498291016 114.5651360080719,60.64258221435547 116.26040876998901,57.975179858398434 120.34527169189454,53.865784252929686 123.69913493041992,51.11661153564452 123.88510599975587,49.47151755371094 122.20534924621582,49.02712596435546 120.3815075958252,49.08029946289062 118.82023321380615,49.41428724365234 117.48996030578613,49.819378979492186 116.58829329528808,50.240368701171874 116.00045906982422,50.576279199218746 115.41781425018311,51.105652453613274 115.36138625793457,51.82660233154297 117.27438630065919,51.76870130615234 119.22757489471435,51.38377980957031 121.76018938293457,51.09703477783202 125.20364596252442,50.51067917480469 128.89106304931641,50.22109274902343 131.65504333190918,50.17081755371093 133.42960773010253,50.01177672119141 134.52655655822755,49.857097570800775 135.21512714538574,49.811070239257816 135.8673144744873,50.437148449707024 135.15476683044434,50.377255603027336 135.05234656677246,49.63235102539062 134.90860210876465,48.89943395996093 134.79603168640136,48.22433255615235 134.1381209197998,47.987960278320315 133.37655617980957,47.962188549804694 132.71108868713378,47.85530904541015 133.51689421691896,48.12535936279296 134.3263378692627,48.07395817871094 135.07351474914552,48.049779907226565" stroke="#ff3399" stroke-linecap="round" stroke-width="1" /></svg>