<?xml version="1.0" encoding="utf-8" ?>
<svg baseProfile="full" height="148mm" version="1.1" viewBox="0 0 210 148" width="210mm" xmlns="http://www.w3.org/2000/svg" xmlns:ev="http://www.w3.org/2001/xml-events" xmlns:xlink="http://www.w3.org/1999/xlink"><defs /><polyline fill="none" points="114.82865231323242,84.27963266448975 113.96606158447265,79.42534061126709 114.10318933410645,77.08757654876709 116.51303903503418,74.51849496307373 117.35874704589844,72.18891362762452 117.44535163879395,70.21809995574951 117.357849710083,68.90808315887452 114.9580658203125,72.5895501876831 112.5703182220459,76.3507591720581 111.89077485351562,74.87694759368897 111.31626347351074,72.23343286590575 110.48599512634277,70.18466987762451 109.64362646484375,68.77879363250733 108.91027241821288,67.92909486541748 108.31745305023193,67.4753945602417 107.49996437072754,67.22627869110107 106.8569511062622,67.44303762664795 109.03836278686524,71.34876340789795 111.95938598327636,75.33390798187256 112.37680058898925,80.01488109588624 112.8630590423584,78.1984478012085 113.54490723266602,76.20627895965576 114.05440597229004,75.09148503875733 116.18220056762695,73.16780436248779 116.60092916564942,70.90127839813232 115.59775345458985,69.01258873748779 111.84924436340332,68.64329287567139 112.18097305297852,69.53805558319092 112.56857537841798,70.58018461151123 112.62241146240234,71.31852024383545 112.43135820007325,72.42628181610107 112.0930341430664,73.08655431365966 111.61054897155762,73.66784093475341 110.73718005065918,73.86773036346436 111.43355735778809,73.41811532440185 111.67995378112794,72.60785461883545 111.69205307922363,71.7515178024292 110.93713451843261,72.0328767868042 110.28140662536622,72.44636262664795 109.50774461975098,72.88127883758546 108.84711034240723,73.2100228439331 104.15270666198731,83.072540184021 102.10073770523071,89.94676869354248 91.07420279846191,100.85804904632569 80.78454649658202,103.2748162612915 77.00285427246094,102.96941365661621 76.13034508666992,102.78298426513672 77.38236126708983,102.86084974212648 78.22228994750976,103.02807838287353 78.98355388183593,103.26400809020996 79.65973046264648,103.53183132781983 78.20964797973633,108.26251226024628 78.6596410583496,112.9601692276001 80.15366555786133,113.84755609893799 82.27517270507812,115.59078792877197 84.0937766784668,116.57080465240479 85.77211781616211,115.62611277770996 86.82770078430175,115.44262183074952 87.49860818481446,115.24432890777588 86.7756685180664,115.4892426437378 85.72969710388183,115.54756489868164 84.41944860534667,115.65228744354249 83.43373791503906,115.7080005142212 83.21521682739258,116.34235748596191 83.13100546875,117.10273678741456 83.64556201171875,113.14501888122558 77.63289986572265,102.07878448638917 79.45354443969727,97.92482391204834 82.1790978149414,93.30350076446533 84.3510752746582,92.32769227142335 84.17896159057617,91.50440342864991 83.23471635131835,90.95462010345459 82.05241798095703,90.55221326141358 81.40393178100585,89.80744689178468 80.87952588500977,89.24565166473388 80.47964743652344,88.70581321868897 80.03142260742187,87.71478456878663 79.92569348144531,86.90152190399169 79.98731189575196,86.04655090789795 83.58203510742187,89.95359169769287 93.85329094390869,94.20468303070069 92.81664094848632,94.74015674591064 94.76246488494873,93.72762353973388 96.85189913635254,91.97579029388427 97.62682152786255,90.04145134124755 97.70563032531739,88.89337164764405 98.37722597122192,89.73021097259522 98.84933576087951,90.62369932098389 99.30281401863098,91.35249047088624 99.69883534584045,91.9331724319458 101.5841370048523,89.91825312957764 101.79369502372742,89.1646881942749 102.7498844581604,89.05052837982177 103.42559814376831,88.75928752288819 105.37845010986328,89.53207759857177 114.56528984069824,84.78634387054444 93.9538936706543,86.3901136581421 94.77315466461181,92.34893870391846 98.41994926757812,92.69135615692139 97.31362693862916,97.9009281539917 97.90155135498047,98.37422452545167 99.88668886413575,97.98883556060791 102.48556862983703,97.60908568572998 105.23133937225342,97.25264418487549 107.71854592437744,97.0688244857788 109.63726076660156,97.3670224899292 110.97350050048829,98.17390827789308 117.80156143798828,78.85303141326904 110.97350050048829,98.17390827789308 117.80156143798828,78.85303141326904 111.8671788848877,99.35148928375244 121.33057893676758,85.20790065155029 111.8671788848877,99.35148928375244 121.33057893676758,85.20790065155029 112.41847436828613,100.6774121963501 127.14638816528321,94.03196773529052 112.41847436828613,100.6774121963501 127.14638816528321,94.03196773529052 112.69189248962402,101.96434825592041 128.87468133544922,98.50970902252197 112.69189248962402,101.96434825592041 128.87468133544922,98.50970902252197 112.76550959472657,103.10155473937988 128.2441926635742,100.55384509124755 112.76550959472657,103.10155473937988 128.2441926635742,100.55384509124755 112.71129648742676,104.04786750946045 126.53847008056641,101.5215602859497 112.71129648742676,104.04786750946045 126.53847008056641,101.5215602859497 112.58733406677246,104.8092010559082 124.16513371582032,101.74324237365722 112.58733406677246,104.8092010559082 124.16513371582032,101.74324237365722 112.43677981567383,105.41246478271485 121.37758998413086,101.41418638305665 112.43677981567383,105.41246478271485 121.37758998413086,101.41418638305665 112.43677981567383,105.41246478271485 121.37758998413086,101.41418638305665 112.27382850952148,105.88880528717041 118.55223823242187,100.85058022460937 112.11304584960938,106.2676006629944 115.97188253173829,100.36924644775391 112.11304584960938,106.2676006629944 115.97188253173829,100.36924644775391 111.96144894104003,106.56941290817261 113.677809475708,100.05662755584717 111.96144894104003,106.56941290817261 113.677809475708,100.05662755584717 111.96144894104003,106.56941290817261 113.677809475708,100.05662755584717 111.81757135620117,106.80975790405273 111.61940952758789,99.87407611846925 111.81757135620117,106.80975790405273 111.61940952758789,99.87407611846925 111.68475752563477,107.00405765724182 109.71259937438965,99.76773115386963 111.68475752563477,107.00405765724182 109.71259937438965,99.76773115386963 111.56267310791016,107.1613299861908 107.9025673461914,99.70445729217529 111.56267310791016,107.1613299861908 107.9025673461914,99.70445729217529 111.45022971496581,107.28941463851929 106.14849685821534,99.66506800994873 111.45022971496581,107.28941463851929 106.14849685821534,99.66506800994873 111.34691313171386,107.39460808143616 104.43298132324219,99.63777091217041 111.34691313171386,107.39460808143616 104.43298132324219,99.63777091217041 111.25102116394044,107.4808998008728 102.74622296218872,99.61731917572021 111.25102116394044,107.4808998008728 102.74622296218872,99.61731917572021 111.16407105102539,107.55286095046998 101.06256583385468,99.59788164215088 111.16407105102539,107.55286095046998 101.06256583385468,99.59788164215088 111.08281896972656,107.61228391532899 99.39803044395447,99.58542056427002 111.08281896972656,107.61228391532899 99.39803044395447,99.58542056427002 111.00758300170898,107.66173557891847 97.74547488098145,99.58089933319093 111.00758300170898,107.66173557891847 97.74547488098145,99.58089933319093 110.93795665283203,107.70297498111725 96.10248552246094,99.58245112457276 110.93795665283203,107.70297498111725 96.10248552246094,99.58245112457276 110.87374887084961,107.73776465511322 94.46439797515869,99.59071819915772" stroke="#ffcc00" stroke-linecap="round" stroke-width="1" /></svg>